<mxfile host="app.diagrams.net" modified="2023-02-03T06:48:55.793Z" agent="5.0 (Windows NT 10.0; Win64; x64) AppleWebKit/537.36 (KHTML, like Gecko) Chrome/109.0.0.0 Safari/537.36" etag="VQXOrcUockrArocnAPur" version="17.4.6" type="github" pages="2">
  <diagram id="z-fNr77IuHyTejfaQIXq" name="第 1 页">
    <mxGraphModel dx="1662" dy="794" grid="1" gridSize="10" guides="1" tooltips="1" connect="1" arrows="1" fold="1" page="1" pageScale="1" pageWidth="827" pageHeight="1169" math="0" shadow="0">
      <root>
        <mxCell id="0" />
        <mxCell id="1" parent="0" />
        <mxCell id="43OzFKLABhHPorNRB5ZF-3" style="edgeStyle=orthogonalEdgeStyle;rounded=0;orthogonalLoop=1;jettySize=auto;html=1;" edge="1" parent="1" source="43OzFKLABhHPorNRB5ZF-1" target="43OzFKLABhHPorNRB5ZF-2">
          <mxGeometry relative="1" as="geometry" />
        </mxCell>
        <mxCell id="43OzFKLABhHPorNRB5ZF-4" value="" style="edgeStyle=orthogonalEdgeStyle;rounded=0;orthogonalLoop=1;jettySize=auto;html=1;" edge="1" parent="1" source="43OzFKLABhHPorNRB5ZF-1" target="43OzFKLABhHPorNRB5ZF-2">
          <mxGeometry relative="1" as="geometry" />
        </mxCell>
        <mxCell id="43OzFKLABhHPorNRB5ZF-1" value="运营端用户登录" style="shape=umlActor;verticalLabelPosition=bottom;verticalAlign=top;html=1;outlineConnect=0;" vertex="1" parent="1">
          <mxGeometry x="70" y="40" width="30" height="60" as="geometry" />
        </mxCell>
        <mxCell id="43OzFKLABhHPorNRB5ZF-2" value="" style="rhombus;whiteSpace=wrap;html=1;" vertex="1" parent="1">
          <mxGeometry x="45" y="210" width="80" height="80" as="geometry" />
        </mxCell>
      </root>
    </mxGraphModel>
  </diagram>
  <diagram id="VyawHsCDL5a61A_rnX4D" name="第 2 页">
    <mxGraphModel dx="1662" dy="794" grid="1" gridSize="10" guides="1" tooltips="1" connect="1" arrows="1" fold="1" page="1" pageScale="1" pageWidth="827" pageHeight="1169" math="0" shadow="0">
      <root>
        <mxCell id="0" />
        <mxCell id="1" parent="0" />
      </root>
    </mxGraphModel>
  </diagram>
</mxfile>
